<svg width="34" height="30" viewBox="0 0 34 30" fill="none" xmlns="http://www.w3.org/2000/svg">
<path d="M33.0781 0.5625H0.921875C0.741406 0.5625 0.59375 0.710156 0.59375 0.890625V3.51562C0.59375 3.69609 0.741406 3.84375 0.921875 3.84375H33.0781C33.2586 3.84375 33.4062 3.69609 33.4062 3.51562V0.890625C33.4062 0.710156 33.2586 0.5625 33.0781 0.5625ZM33.0781 26.1562H0.921875C0.741406 26.1562 0.59375 26.3039 0.59375 26.4844V29.1094C0.59375 29.2898 0.741406 29.4375 0.921875 29.4375H33.0781C33.2586 29.4375 33.4062 29.2898 33.4062 29.1094V26.4844C33.4062 26.3039 33.2586 26.1562 33.0781 26.1562ZM33.0781 13.3594H0.921875C0.741406 13.3594 0.59375 13.507 0.59375 13.6875V16.3125C0.59375 16.493 0.741406 16.6406 0.921875 16.6406H33.0781C33.2586 16.6406 33.4062 16.493 33.4062 16.3125V13.6875C33.4062 13.507 33.2586 13.3594 33.0781 13.3594Z" fill="#5086EC"/>
</svg>
