<svg width="100" height="100" viewBox="0 0 100 100" fill="none" xmlns="http://www.w3.org/2000/svg">
    <rect width="100" height="100" rx="20" fill="#0CA81B"/>
    <path d="M72.2549 69.1731H30.2627V31.0872C30.2627 30.8186 30.043 30.5989 29.7744 30.5989H26.3564C26.0879 30.5989 25.8682 30.8186 25.8682 31.0872V73.0793C25.8682 73.3479 26.0879 73.5676 26.3564 73.5676H72.2549C72.5234 73.5676 72.7432 73.3479 72.7432 73.0793V69.6614C72.7432 69.3928 72.5234 69.1731 72.2549 69.1731ZM35.6338 64.2903H39.0518C39.3203 64.2903 39.54 64.0706 39.54 63.802V55.0129C39.54 54.7444 39.3203 54.5247 39.0518 54.5247H35.6338C35.3652 54.5247 35.1455 54.7444 35.1455 55.0129V63.802C35.1455 64.0706 35.3652 64.2903 35.6338 64.2903ZM44.9111 64.2903H48.3291C48.5977 64.2903 48.8174 64.0706 48.8174 63.802V44.2708C48.8174 44.0022 48.5977 43.7825 48.3291 43.7825H44.9111C44.6426 43.7825 44.4229 44.0022 44.4229 44.2708V63.802C44.4229 64.0706 44.6426 64.2903 44.9111 64.2903ZM54.1885 64.2903H57.6064C57.875 64.2903 58.0947 64.0706 58.0947 63.802V49.0315C58.0947 48.7629 57.875 48.5432 57.6064 48.5432H54.1885C53.9199 48.5432 53.7002 48.7629 53.7002 49.0315V63.802C53.7002 64.0706 53.9199 64.2903 54.1885 64.2903ZM63.4658 64.2903H66.8838C67.1523 64.2903 67.3721 64.0706 67.3721 63.802V39.3879C67.3721 39.1194 67.1523 38.8997 66.8838 38.8997H63.4658C63.1973 38.8997 62.9775 39.1194 62.9775 39.3879V63.802C62.9775 64.0706 63.1973 64.2903 63.4658 64.2903Z" fill="white"/>
</svg>
