<svg width="100" height="100" viewBox="0 0 100 100" fill="none" xmlns="http://www.w3.org/2000/svg">
    <rect width="100" height="100" rx="20" fill="#5086EC"/>
    <path d="M46 74C46 74 42 74 42 70C42 66 46 54 62 54C78 54 82 66 82 70C82 74 78 74 78 74H46ZM62 50C65.1826 50 68.2348 48.7357 70.4853 46.4853C72.7357 44.2348 74 41.1826 74 38C74 34.8174 72.7357 31.7652 70.4853 29.5147C68.2348 27.2643 65.1826 26 62 26C58.8174 26 55.7652 27.2643 53.5147 29.5147C51.2643 31.7652 50 34.8174 50 38C50 41.1826 51.2643 44.2348 53.5147 46.4853C55.7652 48.7357 58.8174 50 62 50Z" fill="white"/>
    <path fill-rule="evenodd" clip-rule="evenodd" d="M38.864 74C38.271 72.7513 37.9753 71.3822 38 70C38 64.58 40.72 59 45.744 55.12C43.2364 54.3473 40.6238 53.9695 38 54C22 54 18 66 18 70C18 74 22 74 22 74H38.864Z" fill="white"/>
    <path d="M36 50C38.6522 50 41.1957 48.9464 43.0711 47.0711C44.9464 45.1957 46 42.6522 46 40C46 37.3478 44.9464 34.8043 43.0711 32.9289C41.1957 31.0536 38.6522 30 36 30C33.3478 30 30.8043 31.0536 28.9289 32.9289C27.0536 34.8043 26 37.3478 26 40C26 42.6522 27.0536 45.1957 28.9289 47.0711C30.8043 48.9464 33.3478 50 36 50Z" fill="white"/>
</svg>