<svg width="100" height="100" viewBox="0 0 100 100" fill="none" xmlns="http://www.w3.org/2000/svg">
    <rect width="100" height="100" rx="20" fill="#F2C94C"/>
    <path d="M56.0534 34C54.5867 36.5334 55.4667 39.8134 58 41.28C60.5334 42.7467 63.8134 41.8667 65.28 39.3334C66.7467 36.8 65.8667 33.52 63.3334 32.0534C60.8 30.5867 57.52 31.4667 56.0534 34Z" fill="white"/>
    <path d="M60.24 45.76L53.3067 41.76C46.96 38.08 44.7734 29.92 48.4534 23.5734L43.84 20.9067C39.6 28.2134 40.9334 37.2267 46.4267 43.0667L32.6934 66.8534L37.3067 69.52L41.3067 62.5867L45.92 65.2534L37.92 79.12L42.5334 81.7867L59.3067 52.7467C60.843 54.8314 61.7392 57.3182 61.886 59.9037C62.0328 62.4892 61.4238 65.0615 60.1334 67.3067L64.7467 69.9734C69.0134 62.64 68.16 52.4267 60.24 45.76ZM52 28.1334C53.92 29.2267 56.3467 28.5867 57.4667 26.6667C58.56 24.7467 57.92 22.32 56 21.2C55.0817 20.6883 53.999 20.5584 52.9857 20.8384C51.9725 21.1184 51.11 21.7857 50.5847 22.6963C50.0593 23.6069 49.9133 24.6875 50.1782 25.7049C50.443 26.7222 51.0974 27.5945 52 28.1334Z" fill="white"/>
</svg>
