<svg width="100" height="100" viewBox="0 0 100 100" fill="none" xmlns="http://www.w3.org/2000/svg">
      <rect width="100" height="100" rx="20" fill="#FF0000"/>
      <path d="M53.3524 28C57.2971 28 61.2418 28.8295 65.1865 30.4882L62.3645 37.4673C59.1885 36.1726 56.4373 35.5253 54.111 35.5252C52.5331 35.5252 51.3193 35.9805 50.4697 36.8907C49.6201 37.7809 49.1953 39.0654 49.1953 40.7444V46.6008H60.5742V53.2461H49.1953V57.5853C49.1953 61.0243 47.668 63.5327 44.6133 65.1106H66.4003V73H34.5999V65.4747C36.6835 64.5847 38.1096 63.5631 38.8783 62.41C39.6673 61.2569 40.0618 59.6689 40.0618 57.646V53.2461H34.6605V46.6008H40.0618V40.6838C40.0618 36.6178 41.2149 33.4923 43.521 31.3075C45.8473 29.1025 49.1245 28 53.3524 28Z" fill="white"/>
</svg>
