<svg width="56" height="64" viewBox="0 0 56 64" fill="none" xmlns="http://www.w3.org/2000/svg">
    <path d="M22.2081 26.848C20.3841 26.848 18.9441 28.448 18.9441 30.4C18.9441 32.352 20.4161 33.952 22.2081 33.952C24.0321 33.952 25.4721 32.352 25.4721 30.4C25.5041 28.448 24.0321 26.848 22.2081 26.848ZM33.8881 26.848C32.0641 26.848 30.6241 28.448 30.6241 30.4C30.6241 32.352 32.0961 33.952 33.8881 33.952C35.7121 33.952 37.1521 32.352 37.1521 30.4C37.1521 28.448 35.7121 26.848 33.8881 26.848Z" fill="white"/>
    <path d="M49.44 0H6.56C2.944 0 0 2.944 0 6.592V49.856C0 53.504 2.944 56.448 6.56 56.448H42.848L41.152 50.528L45.248 54.336L49.12 57.92L56 64V6.592C56 2.944 53.056 0 49.44 0ZM37.088 41.792C37.088 41.792 35.936 40.416 34.976 39.2C39.168 38.016 40.768 35.392 40.768 35.392C39.456 36.256 38.208 36.864 37.088 37.28C35.488 37.952 33.952 38.4 32.448 38.656C29.7074 39.1606 26.8967 39.1497 24.16 38.624C22.5533 38.3096 20.9788 37.849 19.456 37.248C18.6533 36.9393 17.8728 36.5758 17.12 36.16C17.024 36.096 16.928 36.064 16.832 36C16.768 35.968 16.736 35.936 16.704 35.904C16.128 35.584 15.808 35.36 15.808 35.36C15.808 35.36 17.344 37.92 21.408 39.136C20.448 40.352 19.264 41.792 19.264 41.792C12.192 41.568 9.504 36.928 9.504 36.928C9.504 26.624 14.112 18.272 14.112 18.272C18.72 14.816 23.104 14.912 23.104 14.912L23.424 15.296C17.664 16.96 15.008 19.488 15.008 19.488C15.008 19.488 15.712 19.104 16.896 18.56C20.32 17.056 23.04 16.64 24.16 16.544C24.352 16.512 24.512 16.48 24.704 16.48C30.2531 15.7289 35.8966 16.7836 40.8 19.488C40.8 19.488 38.272 17.088 32.832 15.424L33.28 14.912C33.28 14.912 37.664 14.816 42.272 18.272C42.272 18.272 46.88 26.624 46.88 36.928C46.88 36.928 44.16 41.568 37.088 41.792Z" fill="white"/>
</svg>