<svg width="64" height="64" viewBox="0 0 64 64" fill="none" xmlns="http://www.w3.org/2000/svg">
    <path d="M32 0C23.316 0 22.224 0.04 18.812 0.192C15.4 0.352 13.076 0.888 11.04 1.68C8.90438 2.48328 6.96997 3.74331 5.372 5.372C3.7443 6.97078 2.48443 8.90496 1.68 11.04C0.888 13.072 0.348 15.4 0.192 18.8C0.04 22.22 0 23.308 0 32.004C0 40.692 0.04 41.78 0.192 45.192C0.352 48.6 0.888 50.924 1.68 52.96C2.5 55.064 3.592 56.848 5.372 58.628C7.148 60.408 8.932 61.504 11.036 62.32C13.076 63.112 15.396 63.652 18.804 63.808C22.22 63.96 23.308 64 32 64C40.692 64 41.776 63.96 45.192 63.808C48.596 63.648 50.928 63.112 52.964 62.32C55.0983 61.5163 57.0313 60.2563 58.628 58.628C60.408 56.848 61.5 55.064 62.32 52.96C63.108 50.924 63.648 48.6 63.808 45.192C63.96 41.78 64 40.692 64 32C64 23.308 63.96 22.22 63.808 18.804C63.648 15.4 63.108 13.072 62.32 11.04C61.5157 8.9049 60.2558 6.9707 58.628 5.372C57.0305 3.7427 55.096 2.48258 52.96 1.68C50.92 0.888 48.592 0.348 45.188 0.192C41.772 0.04 40.688 0 31.992 0H32.004H32ZM29.132 5.768H32.004C40.548 5.768 41.56 5.796 44.932 5.952C48.052 6.092 49.748 6.616 50.876 7.052C52.368 7.632 53.436 8.328 54.556 9.448C55.676 10.568 56.368 11.632 56.948 13.128C57.388 14.252 57.908 15.948 58.048 19.068C58.204 22.44 58.236 23.452 58.236 31.992C58.236 40.532 58.204 41.548 58.048 44.92C57.908 48.04 57.384 49.732 56.948 50.86C56.435 52.2494 55.6161 53.5057 54.552 54.536C53.432 55.656 52.368 56.348 50.872 56.928C49.752 57.368 48.056 57.888 44.932 58.032C41.56 58.184 40.548 58.22 32.004 58.22C23.46 58.22 22.444 58.184 19.072 58.032C15.952 57.888 14.26 57.368 13.132 56.928C11.742 56.4157 10.4845 55.5983 9.452 54.536C8.387 53.5041 7.56689 52.2466 7.052 50.856C6.616 49.732 6.092 48.036 5.952 44.916C5.8 41.544 5.768 40.532 5.768 31.984C5.768 23.44 5.8 22.432 5.952 19.06C6.096 15.94 6.616 14.244 7.056 13.116C7.636 11.624 8.332 10.556 9.452 9.436C10.572 8.316 11.636 7.624 13.132 7.044C14.26 6.604 15.952 6.084 19.072 5.94C22.024 5.804 23.168 5.764 29.132 5.76V5.768ZM49.084 11.08C48.5797 11.08 48.0804 11.1793 47.6145 11.3723C47.1486 11.5653 46.7253 11.8481 46.3687 12.2047C46.0121 12.5613 45.7293 12.9846 45.5363 13.4505C45.3433 13.9164 45.244 14.4157 45.244 14.92C45.244 15.4243 45.3433 15.9236 45.5363 16.3895C45.7293 16.8554 46.0121 17.2787 46.3687 17.6353C46.7253 17.9919 47.1486 18.2747 47.6145 18.4677C48.0804 18.6607 48.5797 18.76 49.084 18.76C50.1024 18.76 51.0792 18.3554 51.7993 17.6353C52.5194 16.9151 52.924 15.9384 52.924 14.92C52.924 13.9016 52.5194 12.9248 51.7993 12.2047C51.0792 11.4846 50.1024 11.08 49.084 11.08ZM32.004 15.568C29.8243 15.534 27.6596 15.9339 25.6359 16.7446C23.6122 17.5552 21.7701 18.7603 20.2166 20.2897C18.6631 21.8191 17.4295 23.6423 16.5874 25.653C15.7453 27.6638 15.3116 29.822 15.3116 32.002C15.3116 34.182 15.7453 36.3402 16.5874 38.351C17.4295 40.3617 18.6631 42.1849 20.2166 43.7143C21.7701 45.2437 23.6122 46.4488 25.6359 47.2594C27.6596 48.0701 29.8243 48.47 32.004 48.436C36.3182 48.3687 40.4329 46.6077 43.4599 43.533C46.487 40.4584 48.1836 36.3167 48.1836 32.002C48.1836 27.6873 46.487 23.5457 43.4599 20.471C40.4329 17.3963 36.3182 15.6353 32.004 15.568ZM32.004 21.332C34.8333 21.332 37.5468 22.4559 39.5474 24.4566C41.5481 26.4572 42.672 29.1707 42.672 32C42.672 34.8293 41.5481 37.5428 39.5474 39.5434C37.5468 41.5441 34.8333 42.668 32.004 42.668C29.1747 42.668 26.4612 41.5441 24.4606 39.5434C22.4599 37.5428 21.336 34.8293 21.336 32C21.336 29.1707 22.4599 26.4572 24.4606 24.4566C26.4612 22.4559 29.1747 21.332 32.004 21.332Z" fill="white"/>
</svg>
