<svg width="65" height="65" viewBox="0 0 65 65" fill="none" xmlns="http://www.w3.org/2000/svg">
<path d="M32.0003 23.6687C27.4128 23.6687 23.669 27.4125 23.669 32C23.669 36.5875 27.4128 40.3312 32.0003 40.3312C36.5878 40.3312 40.3315 36.5875 40.3315 32C40.3315 27.4125 36.5878 23.6687 32.0003 23.6687ZM56.9878 32C56.9878 28.55 57.019 25.1312 56.8253 21.6875C56.6315 17.6875 55.719 14.1375 52.794 11.2125C49.8628 8.2812 46.319 7.37495 42.319 7.1812C38.869 6.98745 35.4503 7.0187 32.0065 7.0187C28.5565 7.0187 25.1378 6.98745 21.694 7.1812C17.694 7.37495 14.144 8.28745 11.219 11.2125C8.2878 14.1437 7.38155 17.6875 7.1878 21.6875C6.99405 25.1375 7.0253 28.5562 7.0253 32C7.0253 35.4437 6.99405 38.8687 7.1878 42.3125C7.38155 46.3125 8.29405 49.8625 11.219 52.7875C14.1503 55.7187 17.694 56.625 21.694 56.8187C25.144 57.0125 28.5628 56.9812 32.0065 56.9812C35.4565 56.9812 38.8753 57.0125 42.319 56.8187C46.319 56.625 49.869 55.7125 52.794 52.7875C55.7253 49.8562 56.6315 46.3125 56.8253 42.3125C57.0253 38.8687 56.9878 35.45 56.9878 32V32ZM32.0003 44.8187C24.9065 44.8187 19.1815 39.0937 19.1815 32C19.1815 24.9062 24.9065 19.1812 32.0003 19.1812C39.094 19.1812 44.819 24.9062 44.819 32C44.819 39.0937 39.094 44.8187 32.0003 44.8187ZM45.344 21.65C43.6878 21.65 42.3503 20.3125 42.3503 18.6562C42.3503 17 43.6878 15.6625 45.344 15.6625C47.0003 15.6625 48.3378 17 48.3378 18.6562C48.3383 19.0495 48.2612 19.439 48.1109 19.8024C47.9606 20.1659 47.7401 20.4961 47.462 20.7742C47.184 21.0523 46.8537 21.2728 46.4903 21.4231C46.1269 21.5733 45.7373 21.6504 45.344 21.65V21.65Z" fill="white"/>
</svg>
