<svg width="64" height="53" viewBox="0 0 64 53" fill="none" xmlns="http://www.w3.org/2000/svg">
<path d="M20.104 53C44.256 53 57.468 32.988 57.468 15.664C57.468 15.104 57.468 14.536 57.444 13.976C60.0162 12.1139 62.2362 9.80857 64 7.16796C61.5973 8.22737 59.051 8.92559 56.444 9.23996C59.1901 7.59852 61.2469 5.01584 62.232 1.97196C59.652 3.50046 56.8281 4.57346 53.884 5.14396C51.9047 3.03606 49.2856 1.63964 46.4323 1.17099C43.5791 0.702354 40.6509 1.18765 38.1014 2.55171C35.5518 3.91578 33.5232 6.08248 32.3298 8.71621C31.1364 11.3499 30.8447 14.3037 31.5 17.12C26.279 16.8582 21.1713 15.5018 16.5082 13.1389C11.8451 10.776 7.73074 7.45934 4.432 3.40396C2.75736 6.2963 2.24629 9.71757 3.00258 12.973C3.75887 16.2285 5.72582 19.0741 8.504 20.932C6.42216 20.8612 4.38608 20.3022 2.56 19.3V19.48C2.56359 22.5099 3.61323 25.4456 5.5315 27.791C7.44976 30.1364 10.119 31.7475 13.088 32.352C11.9611 32.6624 10.7969 32.8172 9.628 32.812C8.80394 32.8145 7.98152 32.7381 7.172 32.584C8.01115 35.1922 9.64509 37.4726 11.845 39.1059C14.0449 40.7391 16.7005 41.6434 19.44 41.692C14.7862 45.3472 9.03761 47.3296 3.12 47.32C2.07728 47.3244 1.03529 47.2643 0 47.14C6.00606 50.969 12.9812 53.0022 20.104 53Z" fill="white"/>
</svg>
