<svg width="100" height="100" viewBox="0 0 100 100" fill="none" xmlns="http://www.w3.org/2000/svg">
    <rect width="100" height="100" rx="20" fill="#AA3FB4"/>
    <path opacity="0.3" d="M50.125 47.3001H55.95V53.1251H50.125V58.9501H55.95V64.7751H50.125V70.6001H73.425V41.4751H50.125V47.3001ZM61.775 47.3001H67.6V53.1251H61.775V47.3001ZM61.775 58.9501H67.6V64.7751H61.775V58.9501Z" fill="white"/>
    <path d="M61.775 58.95H67.6V64.775H61.775V58.95ZM61.775 47.3H67.6V53.125H61.775V47.3ZM79.25 35.65H50.125V24H21V76.425H79.25V35.65ZM32.65 70.6H26.825V64.775H32.65V70.6ZM32.65 58.95H26.825V53.125H32.65V58.95ZM32.65 47.3H26.825V41.475H32.65V47.3ZM32.65 35.65H26.825V29.825H32.65V35.65ZM44.3 70.6H38.475V64.775H44.3V70.6ZM44.3 58.95H38.475V53.125H44.3V58.95ZM44.3 47.3H38.475V41.475H44.3V47.3ZM44.3 35.65H38.475V29.825H44.3V35.65ZM73.425 70.6H50.125V64.775H55.95V58.95H50.125V53.125H55.95V47.3H50.125V41.475H73.425V70.6Z" fill="white"/>
</svg>
