<svg width="100" height="100" viewBox="0 0 100 100" fill="none" xmlns="http://www.w3.org/2000/svg">
    <rect width="100" height="100" rx="20" fill="#8F00FF"/>
    <path d="M65.9999 47.3333C65.9999 44.776 64.1866 42.6373 61.7839 42.1227C62.7439 40.52 63.3333 38.6667 63.3333 36.6667C63.3333 30.784 58.5493 26 52.6666 26C48.6239 26 45.1413 28.2853 43.3333 31.6107C41.5253 28.2853 38.0426 26 33.9999 26C28.1173 26 23.3333 30.784 23.3333 36.6667C23.3333 39.072 24.1653 41.2693 25.5119 43.056C24.8387 43.5481 24.2906 44.1916 23.9122 44.9347C23.5337 45.6777 23.3354 46.4994 23.3333 47.3333V68.6667C23.3333 71.608 25.7253 74 28.6666 74H60.6666C63.6079 74 65.9999 71.608 65.9999 68.6667V61.6347L76.6666 66.968V48.3013L65.9999 53.6347V47.3333ZM52.6666 31.3333C55.6079 31.3333 57.9999 33.7253 57.9999 36.6667C57.9999 39.608 55.6079 42 52.6666 42C49.7253 42 47.3333 39.608 47.3333 36.6667C47.3333 33.7253 49.7253 31.3333 52.6666 31.3333ZM33.9999 31.3333C36.9413 31.3333 39.3333 33.7253 39.3333 36.6667C39.3333 39.608 36.9413 42 33.9999 42C31.0586 42 28.6666 39.608 28.6666 36.6667C28.6666 33.7253 31.0586 31.3333 33.9999 31.3333Z" fill="white"/>
</svg>