<svg width="100" height="100" viewBox="0 0 100 100" fill="none" xmlns="http://www.w3.org/2000/svg">
    <rect width="100" height="100" rx="20" fill="#9B0CA8"/>
    <path d="M34.7781 22.2233C37.5487 20.1251 40.9309 18.9934 44.4062 19.0018C45.6065 18.9749 46.7942 19.2511 47.8593 19.805C48.9245 20.3589 49.8327 21.1724 50.5 22.1705C51.1673 21.1724 52.0755 20.3589 53.1407 19.805C54.2058 19.2511 55.3935 18.9749 56.5938 19.0018C60.0691 18.9934 63.4513 20.1251 66.2219 22.2233C68.3547 23.8807 70 26.176 70.5809 28.9506C71.9134 29.0521 73.1322 29.6046 74.1559 30.4374C75.7078 31.6968 76.8372 33.5858 77.5481 35.5845C78.6613 38.6922 78.9619 42.653 77.8081 46.0248C78.1006 46.1629 78.3891 46.3254 78.6694 46.5123C79.7866 47.2557 80.6356 48.32 81.2613 49.5753C82.4922 52.0331 83 55.4617 83 59.6257C83 64.2609 81.2328 67.3726 78.9903 69.2942C77.7502 70.3574 76.2868 71.128 74.7084 71.5488C74.3022 73.8156 73.1647 76.4399 71.3813 78.6661C69.0656 81.5707 65.4744 84 60.6562 84C56.8375 84 53.7988 81.8876 51.8244 79.8157C51.3524 79.3211 50.9101 78.7988 50.5 78.2517C50.0899 78.7988 49.6477 79.3211 49.1756 79.8157C47.2013 81.8876 44.1666 84 40.3438 84C35.5256 84 31.9384 81.5707 29.6188 78.6661C27.9521 76.5965 26.8107 74.1547 26.2916 71.5488C24.7132 71.128 23.2498 70.3574 22.0097 69.2942C19.7672 67.3726 18 64.2568 18 59.6257C18 55.4617 18.5119 52.029 19.7387 49.5753C20.3644 48.32 21.2134 47.2598 22.3306 46.5082C22.605 46.3266 22.8929 46.1663 23.1919 46.0289C22.0381 42.649 22.3387 38.6922 23.4519 35.5845C24.1628 33.5858 25.2922 31.6968 26.8441 30.4374C27.8678 29.6046 29.0866 29.0562 30.4191 28.9506C31.0041 26.176 32.6494 23.8807 34.7822 22.2233H34.7781ZM48.4688 29.1578V29.1171L48.4606 28.914C48.4008 27.855 48.1902 26.8099 47.835 25.8104C47.5822 25.0558 47.1516 24.3731 46.5797 23.8198C45.9796 23.2973 45.201 23.0266 44.4062 23.0642C41.8345 23.0554 39.3299 23.8854 37.2725 25.4285C35.3875 26.895 34.25 28.8815 34.25 31.189C34.2498 31.5106 34.1731 31.8276 34.0264 32.1139C33.8797 32.4002 33.667 32.6475 33.406 32.8355C33.145 33.0235 32.8431 33.1469 32.5251 33.1954C32.2071 33.2439 31.8821 33.2162 31.5769 33.1145C30.8131 32.8627 30.1306 33.0048 29.4034 33.5898C28.6072 34.2398 27.8313 35.3935 27.2747 36.9494C26.1412 40.1262 26.2591 43.9733 27.815 46.3132C28.0372 46.6465 28.1559 47.038 28.1562 47.4385H31.2031C33.6274 47.4385 35.9523 48.4015 37.6665 50.1157C39.3807 51.8298 40.3438 54.1547 40.3438 56.5789V57.9398C41.699 58.4189 42.8413 59.3618 43.5686 60.6016C44.296 61.8415 44.5616 63.2985 44.3185 64.7153C44.0754 66.132 43.3393 67.4173 42.2402 68.3438C41.1412 69.2703 39.75 69.7784 38.3125 69.7784C36.875 69.7784 35.4838 69.2703 34.3848 68.3438C33.2857 67.4173 32.5496 66.132 32.3065 64.7153C32.0634 63.2985 32.329 61.8415 33.0564 60.6016C33.7837 59.3618 34.926 58.4189 36.2812 57.9398V56.5789C36.2812 53.7758 34.0063 51.5009 31.2031 51.5009H24.0938C23.8509 51.5005 23.6101 51.4565 23.3828 51.3709L23.3706 51.3953C22.5663 52.9999 22.0625 55.6648 22.0625 59.6257C22.0625 63.1153 23.3422 65.0815 24.6544 66.2067C26.0641 67.4173 27.6281 67.7504 28.1562 67.7504C28.695 67.7504 29.2116 67.9644 29.5926 68.3454C29.9735 68.7263 30.1875 69.2429 30.1875 69.7816C30.1875 71.2766 31 73.8887 32.7875 76.1311C34.5303 78.3045 37.0369 79.9376 40.3438 79.9376C42.6187 79.9376 44.6581 78.6661 46.2344 77.0127C47.0103 76.2002 47.6156 75.3593 48.0097 74.6687C48.1891 74.3624 48.3426 74.0417 48.4688 73.71V41.3449H44.0609C43.5818 42.7002 42.6389 43.8424 41.399 44.5697C40.1591 45.297 38.702 45.5626 37.2852 45.3196C35.8684 45.0765 34.5832 44.3404 33.6567 43.2414C32.7301 42.1424 32.2219 40.7512 32.2219 39.3137C32.2219 37.8763 32.7301 36.4851 33.6567 35.3861C34.5832 34.2871 35.8684 33.551 37.2852 33.3079C38.702 33.0648 40.1591 33.3304 41.399 34.0578C42.6389 34.7851 43.5818 35.9273 44.0609 37.2825H48.4688V29.1578ZM52.5312 69.7776V73.7059C52.6574 74.0377 52.811 74.3583 52.9903 74.6646C53.3884 75.3552 53.9897 76.1961 54.7616 77.0086C56.3419 78.662 58.3853 79.9335 60.6562 79.9335C63.9631 79.9335 66.4697 78.3005 68.2125 76.1271C70 73.8847 70.8125 71.2725 70.8125 69.7776C70.8125 69.2389 71.0265 68.7222 71.4074 68.3413C71.7884 67.9604 72.305 67.7464 72.8438 67.7464C73.3719 67.7464 74.9359 67.4133 76.3456 66.2027C77.6578 65.0774 78.9375 63.1112 78.9375 59.6216C78.9375 55.6608 78.4297 52.9999 77.6294 51.3912C77.3616 50.7922 76.9414 50.2739 76.4106 49.8881C75.9532 49.5957 75.4175 49.4498 74.875 49.4697C74.5076 49.4695 74.1471 49.3697 73.8319 49.1808C73.5168 48.9919 73.2587 48.7211 73.0853 48.3972C72.9119 48.0733 72.8296 47.7084 72.8471 47.3414C72.8647 46.9745 72.9814 46.6191 73.185 46.3132C74.745 43.9733 74.8587 40.1262 73.7253 36.9494C73.1688 35.3935 72.3928 34.2357 71.5966 33.5898C70.8694 33.0048 70.1869 32.8586 69.4231 33.1145C69.1179 33.2162 68.7929 33.2439 68.4749 33.1954C68.1569 33.1469 67.855 33.0235 67.594 32.8355C67.333 32.6475 67.1203 32.4002 66.9736 32.1139C66.8269 31.8276 66.7502 31.5106 66.75 31.189C66.75 28.8815 65.6125 26.895 63.7234 25.4285C61.6671 23.8863 59.1642 23.0562 56.5938 23.0642C55.799 23.0266 55.0204 23.2973 54.4203 23.8198C53.8466 24.3725 53.4147 25.0553 53.1609 25.8104C52.7742 26.8715 52.5615 27.9881 52.5312 29.1171V65.7192H55.5781C58.3812 65.7192 60.6562 63.4443 60.6562 60.6413V53.1868C59.301 52.7076 58.1587 51.7648 57.4314 50.5249C56.704 49.2851 56.4384 47.828 56.6815 46.4113C56.9246 44.9945 57.6607 43.7093 58.7598 42.7828C59.8588 41.8563 61.25 41.3481 62.6875 41.3481C64.125 41.3481 65.5162 41.8563 66.6152 42.7828C67.7143 43.7093 68.4504 44.9945 68.6935 46.4113C68.9366 47.828 68.671 49.2851 67.9436 50.5249C67.2163 51.7648 66.074 52.7076 64.7188 53.1868V60.6413C64.7188 63.0654 63.7557 65.3903 62.0415 67.1045C60.3273 68.8186 58.0024 69.7816 55.5781 69.7816H52.5312V69.7776ZM36.2812 39.3137C36.2812 39.8524 36.4953 40.3691 36.8762 40.75C37.2571 41.1309 37.7738 41.3449 38.3125 41.3449C38.8512 41.3449 39.3679 41.1309 39.7488 40.75C40.1297 40.3691 40.3438 39.8524 40.3438 39.3137C40.3438 38.775 40.1297 38.2584 39.7488 37.8775C39.3679 37.4965 38.8512 37.2825 38.3125 37.2825C37.7738 37.2825 37.2571 37.4965 36.8762 37.8775C36.4953 38.2584 36.2812 38.775 36.2812 39.3137ZM62.6875 49.4697C63.2262 49.4697 63.7429 49.2557 64.1238 48.8748C64.5047 48.4939 64.7188 47.9772 64.7188 47.4385C64.7188 46.8998 64.5047 46.3832 64.1238 46.0022C63.7429 45.6213 63.2262 45.4073 62.6875 45.4073C62.1488 45.4073 61.6321 45.6213 61.2512 46.0022C60.8703 46.3832 60.6562 46.8998 60.6562 47.4385C60.6562 47.9772 60.8703 48.4939 61.2512 48.8748C61.6321 49.2557 62.1488 49.4697 62.6875 49.4697ZM38.3125 61.6569C37.7738 61.6569 37.2571 61.8709 36.8762 62.2518C36.4953 62.6327 36.2812 63.1493 36.2812 63.6881C36.2812 64.2268 36.4953 64.7434 36.8762 65.1243C37.2571 65.5053 37.7738 65.7192 38.3125 65.7192C38.8512 65.7192 39.3679 65.5053 39.7488 65.1243C40.1297 64.7434 40.3438 64.2268 40.3438 63.6881C40.3438 63.1493 40.1297 62.6327 39.7488 62.2518C39.3679 61.8709 38.8512 61.6569 38.3125 61.6569Z" fill="white"/>
</svg>
