<svg width="100" height="100" viewBox="0 0 100 100" fill="none" xmlns="http://www.w3.org/2000/svg">
      <rect width="100" height="100" rx="20" fill="#6DBFED"/>
      <path d="M78.1567 36.5705C74.9762 23.2539 63.1632 14 49.5327 14C33.1761 14 20 27.0909 20 43.3417C20 58.6897 32.0402 71.3292 47.2609 72.4577V83.7429C47.2609 85.0972 48.1696 86 49.5327 86C50.8957 86 51.8044 85.0972 51.8044 83.7429V59.8182V51.4671L62.4816 40.8589C63.3903 39.9561 63.3903 38.6019 62.4816 37.6991C61.5729 36.7962 60.2099 36.7962 59.3012 37.6991L51.8044 45.373V38.6019L44.3077 31.1536C43.399 30.2508 42.0359 30.2508 41.1272 31.1536C40.2185 32.0564 40.2185 33.4107 41.1272 34.3135L47.2609 40.4075V54.4013L38.6283 45.8245C37.7196 44.9216 36.3566 44.9216 35.4479 45.8245C34.5392 46.7273 34.5392 48.0815 35.4479 48.9843L47.2609 60.721V67.9436C34.5392 66.815 24.5435 56.2069 24.5435 43.3417C24.5435 29.5737 35.675 18.5141 49.5327 18.5141C63.3903 18.5141 74.5219 29.5737 74.5219 43.3417C74.5219 54.4013 67.0251 64.1066 56.3479 67.2665V72.0063C72.2501 68.1693 82.0186 52.3699 78.1567 36.5705Z" fill="white"/>
</svg>