<svg width="100" height="100" viewBox="0 0 100 100" fill="none" xmlns="http://www.w3.org/2000/svg">
    <rect width="100" height="100" rx="20" fill="#4F4CC2"/>
    <path d="M50.0001 17.448C32.0221 17.448 17.448 32.0221 17.448 50.0001C17.448 67.9781 32.0221 82.5522 50.0001 82.5522C67.9781 82.5522 82.5522 67.9781 82.5522 50.0001C82.5522 32.0221 67.9781 17.448 50.0001 17.448ZM39.0201 75.9966C32.1302 73.0788 26.6794 67.5466 23.8641 60.6142C21.0488 53.6818 21.0989 45.9156 24.0036 39.0201C24.1419 38.6943 24.2866 38.3712 24.4376 38.051L31.5539 44.4562V53.033L42.0113 64.106H47.2874V70.7584L40.9056 76.7148C40.2706 76.4983 39.6421 76.2589 39.0201 75.9966ZM69.9488 69.9488C67.3324 72.573 64.223 74.654 60.7995 76.0721C57.3759 77.4902 53.7057 78.2174 50.0001 78.2119C48.6512 78.212 47.3041 78.1165 45.9688 77.9261L51.6277 72.6445V59.7657H43.883L35.8942 51.3075V42.5231L26.6304 34.1863C29.6954 29.6717 33.9969 26.1363 39.0196 24.0036C43.3175 22.1855 47.9997 21.463 52.6457 21.9011C57.2918 22.3392 61.7563 23.9241 65.6386 26.5136L59.4586 34.4593L61.5596 39.7117L60.1375 41.1338L49.4742 39.0013L43.4897 43.4897V55.4254H67.3612L74.1897 64.53C73.0023 66.5024 71.5781 68.3222 69.9488 69.9488ZM78.2119 50.0001C78.2182 53.4708 77.5802 56.9126 76.3302 60.1505L69.5313 51.0852H47.8299V45.6598L50.5259 43.6378L61.5641 45.8455L66.6524 40.7572L64.4131 35.1589L69.0517 29.1941C69.3556 29.473 69.6545 29.7587 69.9483 30.0514C72.5726 32.6677 74.6537 35.7771 76.0719 39.2006C77.4901 42.6242 78.2173 46.2944 78.2119 50.0001Z" fill="white"/>
</svg>
